# xmcd
# 
# Track frame offsets:
#     150
#     29542
#     49205
#     70080
#     90575
#     107012
#     128250
#     147855
#     167005
#     183155
#     205405
#     221690
# 
# Disc length: 3227
# 
# Revision: 9
# Processed by: cddbd v1.5.2PL0 Copyright (c) Steve Scherf et al.
# Submitted via: fre:ac v1.1beta1pre5
# 
DISCID=a50c990c
DTITLE=Queen - Innuendo (Japan)
DYEAR=1991
DGENRE=Hard Rock
TTITLE0=Innuendo
TTITLE1=I'm Going Slightly Mad
TTITLE2=Headlong
TTITLE3=I Can't Live with You
TTITLE4=Don't Try so Hard
TTITLE5=Ride the Willd Wind
TTITLE6=All God's People
TTITLE7=These are the Days of Our Lives
TTITLE8=Delilah
TTITLE9=The Hitman
TTITLE10=Bijou
TTITLE11=The Show Must Go On
EXTD=
EXTT0=
EXTT1=
EXTT2=
EXTT3=
EXTT4=
EXTT5=
EXTT6=
EXTT7=
EXTT8=
EXTT9=
EXTT10=
EXTT11=
PLAYORDER=
